<svg width="20" height="20" viewBox="0 0 20 20" fill="none" xmlns="http://www.w3.org/2000/svg">
    <path fill-rule="evenodd" clip-rule="evenodd" d="M20 20H0V0H20V20ZM12.61 12.61H10.87V15.34L12.05 16.52H14.78V14.78H12.61L12.61 12.61ZM16.52 12.05L15.34 10.87H12.61V12.61H14.78L14.78 14.78H16.52L16.52 12.05ZM9.13 10.87H7.39V12.61H9.13V10.87ZM3.48 15.34L4.66 16.52H9.13V14.78H5.22V10.87H3.48L3.48 15.34ZM14.55 7.39V4.66L13.37 3.48H10.87V5.22H12.81V7.39H10.87V9.13H16.52V7.39H14.55ZM5.22 3.48H3.48V9.13H5.22V7.17H7.39V9.13H9.13V7.17L7.39 5.43H5.22V3.48ZM9.13 3.48H7.39L7.39 5.43H9.13V3.48Z" fill="#6C707E"/>
</svg>
