<svg width="16" height="16" viewBox="0 0 20 20" fill="none" xmlns="http://www.w3.org/2000/svg">
  <path d="M13.332 8.7487C11.4911 8.7487 9.9987 7.25631 9.9987 5.41536M6.66536 11.2487C8.50631 11.2487 9.9987 12.7411 9.9987 14.582M9.9987 2.78209L9.9987 17.0658M16.004 15.0475C17.1255 14.5876 17.9154 13.4849 17.9154 12.1978C17.9154 11.3363 17.5615 10.5575 16.9913 9.9987C17.5615 9.43991 17.9154 8.66108 17.9154 7.79962C17.9154 6.21199 16.7136 4.90504 15.1702 4.73878C14.7858 3.21216 13.4039 2.08203 11.758 2.08203C11.1171 2.08203 10.5162 2.25337 9.9987 2.55275C9.48117 2.25337 8.88032 2.08203 8.23944 2.08203C6.59353 2.08203 5.21157 3.21216 4.82722 4.73878C3.28377 4.90504 2.08203 6.21199 2.08203 7.79962C2.08203 8.66108 2.43585 9.43991 3.00609 9.9987C2.43585 10.5575 2.08203 11.3363 2.08203 12.1978C2.08203 13.4849 2.87191 14.5876 3.99339 15.0475C4.46688 16.7033 5.9917 17.9154 7.79962 17.9154C8.61335 17.9154 9.36972 17.6698 9.9987 17.2488C10.6277 17.6698 11.384 17.9154 12.1978 17.9154C14.0057 17.9154 15.5305 16.7033 16.004 15.0475Z" stroke="#6C707E"/>
</svg>
