<svg width="16" height="16" viewBox="0 0 20 20" fill="none" xmlns="http://www.w3.org/2000/svg">
  <path d="M9.58329 13.7497H17.0833M9.58329 6.24967H17.0833M6.24996 6.24967C6.24996 7.17015 5.50377 7.91634 4.58329 7.91634C3.66282 7.91634 2.91663 7.17015 2.91663 6.24967C2.91663 5.3292 3.66282 4.58301 4.58329 4.58301C5.50377 4.58301 6.24996 5.3292 6.24996 6.24967ZM6.24996 13.7497C6.24996 14.6701 5.50377 15.4163 4.58329 15.4163C3.66282 15.4163 2.91663 14.6701 2.91663 13.7497C2.91663 12.8292 3.66282 12.083 4.58329 12.083C5.50377 12.083 6.24996 12.8292 6.24996 13.7497Z" stroke="#CED0D6" stroke-linecap="square"/>
</svg>
