<svg width="16" height="16" viewBox="0 0 20 20" fill="none" xmlns="http://www.w3.org/2000/svg">
  <path d="M0.416626 7.91667H1.66663M19.5833 7.91667H18.3333M11.866 7.57987C11.3165 7.26398 10.6793 7.08333 9.99996 7.08333C9.32061 7.08333 8.68344 7.26398 8.13389 7.57987M8.74996 10C8.74996 12.0711 7.07103 13.75 4.99996 13.75C2.92889 13.75 1.24996 12.0711 1.24996 10C1.24996 7.92893 2.92889 6.25 4.99996 6.25C7.07103 6.25 8.74996 7.92893 8.74996 10ZM18.75 10C18.75 12.0711 17.071 13.75 15 13.75C12.9289 13.75 11.25 12.0711 11.25 10C11.25 7.92893 12.9289 6.25 15 6.25C17.071 6.25 18.75 7.92893 18.75 10Z" stroke="#6C707E" stroke-linecap="square"/>
</svg>
