<svg width="16" height="16" viewBox="0 0 20 20" fill="none" xmlns="http://www.w3.org/2000/svg">
  <g>
    <path d="M0.972656 9.37176L9.5214 1.60019C10.7018 0.527151 12.6155 0.527151 13.7957 1.60019C14.9761 2.67321 14.9761 4.41295 13.7957 5.48599L7.3397 11.3552" stroke="#CED0D6" stroke-linecap="round"/>
    <path d="M7.42871 11.2747L13.7957 5.48643C14.9761 4.41338 16.8898 4.41338 18.0702 5.48643L18.1147 5.52688C19.2951 6.59993 19.2951 8.33966 18.1147 9.4127L10.3831 16.4414C9.98966 16.7991 9.98966 17.379 10.3831 17.7366L11.9707 19.1799" stroke="#CED0D6" stroke-linecap="round"/>
    <path d="M11.6587 3.54346L5.33619 9.29119C4.15584 10.3642 4.15584 12.1039 5.33619 13.177C6.51649 14.25 8.43019 14.25 9.61054 13.177L15.9331 7.42923" stroke="#CED0D6" stroke-linecap="round"/>
  </g>
</svg>
